<svg width="96" height="96" xmlns="http://www.w3.org/2000/svg" xmlns:xlink="http://www.w3.org/1999/xlink" xml:space="preserve" overflow="hidden"><defs><clipPath id="clip0"><rect x="194" y="22" width="96" height="96"/></clipPath></defs><g clip-path="url(#clip0)" transform="translate(-194 -22)"><path d="M258.5 73.5 265 80 271.5 73.5 278 80 286 70 278 60 237.5 60C233.9 53.4 227 49 219 49 207.4 49 198 58.4 198 70 198 81.6 207.4 91 219 91 227 91 233.9 86.6 237.5 80L244 80 248 76 252 80 258.5 73.5ZM210 76C206.7 76 204 73.3 204 70 204 66.7 206.7 64 210 64 213.3 64 216 66.7 216 70 216 73.3 213.3 76 210 76Z"/></g></svg>